<?xml version="1.0" encoding="UTF-8"?>
<svg width="87.519mm" height="94.048mm" version="1.1" viewBox="0 0 87.519 94.048" xml:space="preserve" xmlns="http://www.w3.org/2000/svg"><g transform="translate(-4.237 -84.435)"><path d="m66.702 88.892-18.551 0.0078c-14.165 6e-3 -18.65 0.0846-18.971 0.33073-0.64616 0.4961-1.0351 1.3882-1.0351 2.3725 0 1.4438 1.8181 2.8448 3.6918 2.8448 0.41097 0 1.0285 0.22739 1.372 0.5054l0.62477 0.5054 0.08371 8.0145c0.05542 5.2742-0.01592 8.4129-0.20929 9.1808-0.1732 0.68785-3.5261 6.5593-8.1664 14.301-13.018 21.718-14.907 24.912-15.68 26.507-2.1928 4.5268-2.0692 9.9234 0.31884 13.898 1.1545 1.9217 3.9888 4.5528 5.9252 5.501 2.9986 1.4683 2.5326 1.4472 31.751 1.465 25.406 0.0155 27.097-0.0123 28.866-0.47181v5.2e-4c5.1593-1.3404 9.1177-5.0258 10.615-9.8826 0.6811-2.2094 0.56522-5.7044-0.2744-8.2734-0.83358-2.5505-1.6026-3.898-14.346-25.135-5.5013-9.1678-10.166-17.135-10.367-17.705-0.28735-0.81533-0.34822-2.7613-0.28525-9.1281 0.07529-7.6134 0.11055-8.1272 0.60151-8.6873 0.39682-0.45271 0.80878-0.59552 1.7198-0.59583 1.6292-5.6e-4 2.9432-0.70728 3.5238-1.895 0.56666-1.1591 0.40786-2.0457-0.53588-2.9895z" fill="#f2f2f2"/><path d="m68.029 133.92c-0.8173-7e-3 -2.1575 0.42662-5.8343 1.6826-7.8076 2.667-10.479 3.2937-14.025 3.2887-3.3474-5e-3 -5.976-0.48307-11.036-2.0071-2.9539-0.88969-3.6184-0.99586-6.3422-1.0129-4.972-0.0311-5.6619 0.40489-8.7095 5.502-10.63 17.779 56.041 13.083 53.467 2.6772-0.19493-0.78823-1.085-1.8273-1.5776-2.4804-4.0995-5.4343-4.1587-7.0295-4.9821-7.4047-0.3259-0.14849-0.58916-0.2425-0.96066-0.24546z" fill="#322444"/><path d="m17.286 151.81c-8.4503 14.047-1.7252 16.699 2.6655 17.886 1.2385 0.33501 5.3668 0.38383 28.712 0.34003l25.785-0.0484a6.3651 6.3651 166.79 0 0 2.8089-0.6592l0.69486-0.34352c5.1223-2.5318 7.0938-8.4289 4.5176-13.513-0.37406-0.73817-7.3179-12.286-7.3179-12.286s-7.7511 5.1873-11.595 8.0224c-2.2992 1.6957-10.45 2.7999-16.014 1.9611-5.5646-0.83877-11.985-6.07-17.206-4.6027-5.2208 1.4673-9.3744-2.8684-13.051 3.2432z" fill="#8c1b4b"/><path d="m33.908 142.12-1.9446-0.81648c-2.2173-0.93074-5.9124-2.0453-7.2332-2.1823-0.59386-0.0616-1.2346-0.0128-1.2346-0.0128s-1.6636 2.2024-2.8543 4.167c-8.2746 13.652-7.8575 15.363-7.8462 17.787 0.0036 0.77904 0.02353 2.5388 0.53753 3.5531 0.31092 0.61357 0.61335 1.064 0.61335 1.064l0.75055 0.0279s12.638 0.10759 25.714 0.13205c20.931 0.0392 23.969-6e-3 25.4-0.37465 5.4176-1.3968 8.7747-5.581 9.3235-11.62 0.183-2.014-0.29808-4.9975-1.2366-7.6678-0.28737-0.81761-0.62273-1.6496-0.62273-1.6496s0.02864-0.25841-0.9503 0.47393c-1.3377 1.0007-5.4844 2.8558-7.3453 3.407-2.6555 0.78668-5.9422 1.3358-7.9938 1.3358-3.9968 0-9.7923-1.6405-14.525-4.1119-2.1134-1.1037-6.2068-2.5849-8.5524-3.5114z" fill="#cc1148"/><path d="m56.294 119.65c0.54002-4e-3 1.1208 0.12416 1.7309 0.39165 1.5277 0.6699 2.2131 2.2101 2.2131 4.9725 0 2.476-0.78794 4.2873-2.1446 4.9293-3.4708 1.6424-6.4159-2.2258-5.2325-6.8726 0.56175-2.2059 1.8131-3.4086 3.4331-3.4209z" fill="#322444" stroke-width="1.2934"/><path d="m40.388 119.84c-0.54002-4e-3 -1.1208 0.12416-1.7309 0.39165-1.5277 0.6699-2.2131 2.2101-2.2131 4.9725 0 2.476 0.78794 4.2873 2.1446 4.9293 3.4708 1.6424 6.4159-2.2258 5.2325-6.8726-0.56175-2.2059-1.8131-3.4086-3.4331-3.4209z" fill="#322444" stroke-width="1.2934"/><path d="m60.808 135.71c-0.50168 0.19942-1.6813 0.36392-3.466 0.7375-2.7666 0.5791-4.6574 0.48151-4.7557 0.81226-0.32106 1.0798 4.3622 10.568 5.2419 10.572 0.23076 8.8e-4 0.92938-0.7095 1.5521-1.5794 1.1469-1.6022 2.4721-4.6439 2.9104-6.6802 0.13058-0.60664 0.73123-4.7427 0.11184-4.4965z" fill="#f2f2f2" stroke-width="1.1218"/><path d="m36.214 135.52c0.47382 0.19942 1.5879 0.36392 3.2735 0.7375 2.6129 0.5791 4.3987 0.48151 4.4916 0.81226 0.30323 1.0798-4.1199 10.568-4.9508 10.572-0.21795 8.8e-4 -0.87777-0.7095-1.4659-1.5794-1.0832-1.6022-2.3348-4.6439-2.7488-6.6802-0.12333-0.60664-0.69062-4.7427-0.10563-4.4965z" fill="#f2f2f2" stroke-width="1.0902"/><rect x="39.992" y="94.45" width="24.567" height="3.5719" rx=".913" fill="#c3d0d1" stroke-width=".25152"/><path d="m48.933 84.452c-12.423-0.05102-18.681 0.01689-19.628 0.21342-3.7057 0.76931-6.2121 4.506-5.4141 8.0719 0.48609 2.1721 1.6235 3.662 3.5197 4.6095 0.88712 0.4433 1.7723 0.80615 1.9673 0.80615 0.28718 0 0.35502 1.2849 0.35502 6.7572 0 7.9242 0.58978 6.0991-4.9341 15.268-11.233 18.645-17.743 29.66-18.649 31.553-1.5083 3.1532-1.9289 5.0449-1.9125 8.599 0.016125 3.4999 0.61762 5.7809 2.3492 8.9075 2.5658 4.6327 8.0857 8.3939 13.351 9.0971 0.8036 0.10729 13.844 0.17131 28.978 0.14211 29.749-0.0574 27.888 0.028 31.569-1.449 4.7019-1.8866 8.5173-5.8755 10.424-10.899 0.80342-2.1166 0.84491-2.41 0.84801-5.9309 0.0029-3.3724-0.06256-3.8937-0.73277-5.8208-0.40488-1.1642-1.1625-2.8906-1.6836-3.8364-1.1125-2.0192-10.361-17.636-12.378-20.902-2.106-3.4094-9.5195-15.864-10.156-17.062-0.52808-0.99377-0.56017-1.4389-0.56017-7.7391 0-6.189 0.03433-6.6849 0.46302-6.6869 0.78713-0.0044 3.2097-1.2595 3.9321-2.0371 3.0992-3.3358 1.9227-11.298-2.7926-11.55l-0.67644-0.03617zm17.769 4.44 0.10416-0.0011c1.3346-0.01375 1.6697 2.5028 1.103 3.6618-0.58065 1.1877-1.8946 1.8944-3.5238 1.895-0.91101 3.1e-4 -1.323 0.14312-1.7198 0.59583-0.49097 0.56012-0.52622 1.0739-0.60151 8.6873-0.06296 6.3668-0.0021 8.3128 0.28525 9.1281 0.20086 0.56993 4.866 8.5371 10.367 17.705 12.744 21.237 13.513 22.585 14.346 25.135 0.83962 2.569 0.9555 6.064 0.2744 8.2734-1.4972 4.8568-5.4555 8.5422-10.615 9.8826v-5.2e-4c-1.7687 0.45952-3.4595 0.48731-28.866 0.47181-29.218-0.0179-28.752 3e-3 -31.751-1.465-1.9364-0.94814-4.7707-3.5792-5.9252-5.501-2.388-3.975-2.5116-9.3716-0.31884-13.898 0.773-1.5958 2.6618-4.7892 15.68-26.507 4.6403-7.7416 7.9932-13.613 8.1664-14.301 0.19337-0.76796 0.26471-3.9066 0.20929-9.1808l-0.08371-8.0145c-0.13184-1.0508-1.0089-1.0022-1.9968-1.0108-1.8736-0.01626-3.6918-1.401-3.6918-2.8448 0-0.98422 0.38892-1.8764 1.0351-2.3725 0.32056-0.24613 4.8055-0.32473 18.971-0.33073z" fill="#322444"/></g></svg>
