<?xml version="1.0" encoding="UTF-8"?>
<svg width="252.99mm" height="94.048mm" version="1.1" viewBox="0 0 252.99 94.048" xml:space="preserve" xmlns="http://www.w3.org/2000/svg"><g transform="translate(-4.237 -84.435)"><g transform="translate(14.817)" fill="#322444"><path d="m226.55 151.73c-1.5262-0.79497-3.2141-2.6808-3.6241-4.0491-0.4343-1.4495-0.38788-4.1946 0.0986-5.8329 0.52939-1.7826 1.3114-2.5007 6.6017-6.0624l4.2333-2.8501 0.0771-2.0375c0.11612-3.0675-0.85119-4.471-3.1226-4.5306-1.4352-0.0376-2.0908 0.68498-2.9077 3.2051-0.59496 1.8355-0.79445 2.1407-1.9844 3.0362-2.2033 1.658-2.3212 1.5449-2.2107-2.1225 0.0722-2.3969 0.2003-3.2828 0.55225-3.8198 0.41549-0.63395 4.9997-3.932 7.3849-5.313l0.964-0.55813 2.575 1.0192c2.783 1.1015 4.2334 2.1633 4.7968 3.5116 0.27904 0.66784 0.35768 3.0776 0.35845 10.984 9.6e-4 9.8014 0.0189 10.159 0.55395 11.055 0.30412 0.50932 0.80969 1.128 1.1235 1.3748 0.40413 0.31786 0.48831 0.53127 0.2886 0.73172-0.51052 0.51244-4.452 2.9206-4.7802 2.9206-0.55071 0-1.929-1.3263-2.6411-2.5414-0.37478-0.63951-0.74536-1.1627-0.8235-1.1627-0.0781 0-1.3094 0.83344-2.7362 1.8521-1.4268 1.0186-2.81 1.8465-3.0739 1.8398-0.2639-7e-3 -1.0307-0.29926-1.704-0.64996zm5.9739-4.7393c0.49293-0.20596 1.0275-0.61978 1.188-0.9196 0.19046-0.35589 0.26674-2.242 0.21973-5.4332l-0.072-4.8881-2.4231 1.8276c-2.8077 2.1176-3.1406 2.7432-2.9413 5.5278 0.14571 2.0365 0.71082 3.2929 1.7298 3.8458 0.91503 0.49649 1.1942 0.50131 2.299 0.0397z"/><path d="m209.98 151.4c-0.0837-0.21815 8e-3 -0.64876 0.20426-0.95691 1.5405-2.4212 1.4468-1.2428 1.4468-18.199v-15.522l-0.59531-0.8052c-0.32742-0.44286-0.59531-0.97667-0.59531-1.1862 0-0.20958 1.353-1.2745 3.0066-2.3665 3.3787-2.2312 4.6456-2.9391 4.866-2.7188 0.0827 0.0827-0.0176 1.0142-0.22303 2.07-0.29763 1.53-0.37343 5.3567-0.37343 18.853 0 18.697-0.11662 17.311 1.6516 19.637 1.1128 1.4639 0.93579 1.5266-4.4074 1.5608-4.0662 0.026-4.8525-0.0318-4.9807-0.36578z"/><path d="m192.32 151.62c-1.9719-1.1418-3.4579-2.5307-4.0778-3.8112-0.52897-1.0927-0.55243-1.5476-0.55243-10.714v-9.573l-0.92604-1.025c-0.50932-0.56376-0.92604-1.1335-0.92604-1.2661 0-0.22825 4.2034-3.117 5.5013-3.7808 0.53744-0.27485 0.71065-0.206 1.5214 0.60471l0.91487 0.91487v22.066l0.88399 0.88399c0.48619 0.48619 1.2014 0.96364 1.5892 1.061 1.0609 0.26627 2.5351-0.103 3.2449-0.81278l0.6319-0.63189v-18.208l-0.79375-0.99881c-0.43656-0.54934-0.79375-1.1488-0.79375-1.3321 0-0.30263 4.4119-3.3432 5.4026-3.7234 0.26388-0.10126 0.75395 0.17898 1.3429 0.76793l0.92738 0.92737 9.8e-4 11.734c9.7e-4 11.452 0.0144 11.757 0.55695 12.66 0.30578 0.50932 0.79373 1.1848 1.0843 1.501l0.52838 0.57495-1.1515 0.7273c-2.301 1.4534-3.695 2.2236-4.0074 2.2143-0.56643-0.0169-1.7046-1.1498-2.3828-2.3717-0.36344-0.65484-0.84607-1.2281-1.0725-1.2739-0.22645-0.0458-1.578 0.75595-3.0034 1.7816-1.4254 1.0257-2.7107 1.8657-2.8562 1.8667-0.14552 1e-3 -0.85989-0.34287-1.5875-0.76418z"/><path d="m151.51 151.65c-0.61091-0.0957-0.80675-0.68825-0.32569-0.98555 0.14828-0.0917 0.565-0.74956 0.92604-1.462l0.65642-1.2954v-9.9438c0-10.827 0.0155-10.703-1.5516-12.387l-0.6974-0.7493 0.79375-0.643c0.43656-0.35365 1.602-1.188 2.59-1.8541 1.7241-1.1625 1.8218-1.1943 2.4345-0.79285 1.0883 0.71309 1.9874 1.835 2.3001 2.8703 0.16486 0.54571 0.37226 0.99219 0.46089 0.99219 0.0886 0 1.3706-0.9525 2.8489-2.1167 1.4783-1.1642 2.8568-2.1167 3.0632-2.1167 0.75636 0 3.6612 2.1419 4.4797 3.3032 0.46318 0.65712 0.92191 1.1948 1.0194 1.1948s1.295-0.90414 2.661-2.0092c3.4335-2.7775 3.3485-2.7499 5.1438-1.6669 1.7642 1.0643 3.1165 2.3209 3.7557 3.49 0.41278 0.75492 0.4779 2.0043 0.59573 11.431 0.14568 11.655 0.0637 11.077 1.9068 13.423 0.42681 0.54313 0.71428 1.0874 0.63883 1.2095-0.15089 0.24415-9.8983 0.19586-10.144-0.0503-0.0841-0.0841 0.25177-0.89916 0.74637-1.8113l0.89928-1.6584 0.0837-8.9958c0.0552-5.9318-0.014-9.3271-0.20321-9.9685-0.66275-2.247-3.1478-3.0611-4.7565-1.5584l-0.83098 0.77626 0.1508 19.787 1.0081 1.6328c0.55445 0.89802 0.93351 1.7535 0.84234 1.901-0.14989 0.24252-9.8392 0.16653-10.085-0.0791-0.0491-0.0492 0.35474-0.7962 0.89753-1.6601l0.98689-1.5708 0.082-9.1281c0.0538-5.9873-0.0161-9.4628-0.20321-10.101-0.34462-1.1754-1.6421-2.335-2.611-2.3336-0.968 1e-3 -2.3855 0.91339-2.6983 1.7361-0.1494 0.39295-0.25799 4.4998-0.25799 9.7572 0 9.7741 4e-3 9.8083 1.4582 11.951 0.36934 0.54425 0.62891 1.1174 0.57682 1.2737-0.0893 0.26788-8.149 0.44199-9.6418 0.20829z"/><path d="m133.8 151.52c-0.0732-0.11754 0.18521-0.69471 0.57426-1.2826 1.4174-2.1418 1.4599-2.496 1.4531-12.097-3e-3 -4.893-0.11349-9.3584-0.24448-9.923-0.13716-0.59123-0.6394-1.4375-1.1843-1.9955-0.52038-0.53292-0.94615-1.1029-0.94615-1.2665s1.1762-1.0933 2.6138-2.0658c2.2421-1.5167 2.691-1.7269 3.1566-1.4777 0.71212 0.38112 1.4859 1.5047 1.8863 2.739 0.17701 0.5457 0.38596 0.99219 0.46434 0.99219 0.0784 0 0.93235-0.69574 1.8977-1.5461 0.96536-0.85034 2.0633-1.7444 2.4399-1.9867 0.66182-0.42588 0.72129-0.41412 1.7788 0.35191 1.4351 1.0396 2.1668 2.4981 2.1668 4.3193 0 1.9198-0.7951 3.3101-2.7564 4.8197-1.7129 1.3184-1.9786 1.2656-2.0221-0.40193-0.037-1.4167-0.61457-2.7354-1.3898-3.1732-0.65016-0.3672-0.74202-0.3527-1.3005 0.20536-0.59254 0.59211-0.60211 0.7063-0.68769 8.2003-0.11873 10.397-0.0142 11.48 1.3222 13.696 0.58168 0.96443 0.97765 1.8329 0.87994 1.9299-0.2558 0.25396-9.943 0.21816-10.102-0.0373z"/><path d="m119.16 151.56c-2.3423-1.3367-4.4881-3.1549-5.2472-4.4462l-0.70588-1.2007-0.0746-8.3344c-0.071-7.9266-0.0489-8.3758 0.45108-9.181 0.57783-0.93061 2.0726-2.1591 6.5428-5.3771l2.9569-2.1287 1.6439 0.79633c3.4063 1.65 5.462 3.7138 6.2252 6.2495 0.47615 1.5821 0.55018 15.685 0.0893 17.007-0.2033 0.58318-0.9893 1.344-2.6408 2.5561-4.0392 2.9647-6.9489 4.8947-7.3753 4.8921-0.22555-1e-3 -1.0649-0.3762-1.8653-0.83296zm5.7679-4.2446c0.49919-0.49919 0.44703-16.924-0.0568-17.886-0.76285-1.4561-3.1466-3.228-4.3427-3.228-1.0894 0-1.1277 0.35165-1.048 9.6136l0.0764 8.8732 0.79375 0.83441c0.81691 0.85876 1.8791 1.5094 3.041 1.8629 0.96416 0.29328 1.1827 0.28328 1.5363-0.0703z"/><path d="m92.793 151.53c-0.06954-0.11196 0.29084-0.77199 0.80083-1.4667 0.50999-0.69475 1.0597-1.7938 1.2217-2.4423 0.20446-0.81888 0.27045-6.0694 0.216-17.186l-0.0784-16.007-0.70061-1.1906c-0.38534-0.65485-1.1295-1.5805-1.6536-2.0569-0.52417-0.47647-0.95303-0.98249-0.95303-1.1245 0-0.16253 3.7245-0.2745 10.054-0.30226 5.5298-0.0243 10.263-0.054 10.517-0.0662 0.56234-0.0268 0.57773-0.18196-0.47645 4.8066-0.89207 4.2214-1.2631 4.8529-1.8343 3.1221-0.37769-1.1444-1.8385-2.4506-2.9753-2.6604-0.47606-0.0878-1.8776-0.12347-3.1145-0.0792l-2.249 0.0805-0.0713 5.9198c-0.0534 4.4374 0.0116 6.0197 0.25967 6.3186 0.27147 0.3271 0.77115 0.36785 2.7794 0.22669 2.7569-0.1938 3.508-0.416 4.6477-1.375 0.43724-0.3679 0.88412-0.57291 0.99307-0.45558 0.17431 0.18773-0.89245 8.6829-1.198 9.5399-0.19412 0.54458-0.4923 0.3671-1.2691-0.75537-0.92299-1.3338-2.0728-1.8243-4.2758-1.8243-1.6104 0-1.734 0.0427-1.8868 0.65149-0.0899 0.35831-0.11663 3.7218-0.0593 7.4745 0.11358 7.4389 0.163 7.7108 1.7626 9.6988 0.45304 0.56303 0.75579 1.1336 0.67277 1.2679-0.18113 0.29308-10.945 0.18289-11.13-0.11393z"/></g><path d="m66.702 88.892-18.551 0.0078c-14.165 6e-3 -18.65 0.0846-18.971 0.33073-0.64616 0.4961-1.0351 1.3882-1.0351 2.3725 0 1.4438 1.8181 2.8448 3.6918 2.8448 0.41097 0 1.0285 0.22739 1.372 0.5054l0.62477 0.5054 0.08371 8.0145c0.05542 5.2742-0.01592 8.4129-0.20929 9.1808-0.1732 0.68785-3.5261 6.5593-8.1664 14.301-13.018 21.718-14.907 24.912-15.68 26.507-2.1928 4.5268-2.0692 9.9234 0.31884 13.898 1.1545 1.9217 3.9888 4.5528 5.9252 5.501 2.9986 1.4683 2.5326 1.4472 31.751 1.465 25.406 0.0155 27.097-0.0123 28.866-0.47181v5.2e-4c5.1593-1.3404 9.1177-5.0258 10.615-9.8826 0.6811-2.2094 0.56522-5.7044-0.2744-8.2734-0.83358-2.5505-1.6026-3.898-14.346-25.135-5.5013-9.1678-10.166-17.135-10.367-17.705-0.28735-0.81533-0.34822-2.7613-0.28525-9.1281 0.07529-7.6134 0.11055-8.1272 0.60151-8.6873 0.39682-0.45271 0.80878-0.59552 1.7198-0.59583 1.6292-5.6e-4 2.9432-0.70728 3.5238-1.895 0.56666-1.1591 0.40786-2.0457-0.53588-2.9895z" fill="#f2f2f2"/><path d="m68.029 133.92c-0.8173-7e-3 -2.1575 0.42662-5.8343 1.6826-7.8076 2.667-10.479 3.2937-14.025 3.2887-3.3474-5e-3 -5.976-0.48307-11.036-2.0071-2.9539-0.88969-3.6184-0.99586-6.3422-1.0129-4.972-0.0311-5.6619 0.40489-8.7095 5.502-10.63 17.779 56.041 13.083 53.467 2.6772-0.19493-0.78823-1.085-1.8273-1.5776-2.4804-4.0995-5.4343-4.1587-7.0295-4.9821-7.4047-0.3259-0.14849-0.58916-0.2425-0.96066-0.24546z" fill="#322444"/><path d="m17.286 151.81c-8.4503 14.047-1.7252 16.699 2.6655 17.886 1.2385 0.33501 5.3668 0.38383 28.712 0.34003l25.785-0.0484a6.3651 6.3651 166.79 0 0 2.8089-0.6592l0.69486-0.34352c5.1223-2.5318 7.0938-8.4289 4.5176-13.513-0.37406-0.73817-7.3179-12.286-7.3179-12.286s-7.7511 5.1873-11.595 8.0224c-2.2992 1.6957-10.45 2.7999-16.014 1.9611-5.5646-0.83877-11.985-6.07-17.206-4.6027-5.2208 1.4673-9.3744-2.8684-13.051 3.2432z" fill="#8c1b4b"/><path d="m33.908 142.12-1.9446-0.81648c-2.2173-0.93074-5.9124-2.0453-7.2332-2.1823-0.59386-0.0616-1.2346-0.0128-1.2346-0.0128s-1.6636 2.2024-2.8543 4.167c-8.2746 13.652-7.8575 15.363-7.8462 17.787 0.0036 0.77904 0.02353 2.5388 0.53753 3.5531 0.31092 0.61357 0.61335 1.064 0.61335 1.064l0.75055 0.0279s12.638 0.10759 25.714 0.13205c20.931 0.0392 23.969-6e-3 25.4-0.37465 5.4176-1.3968 8.7747-5.581 9.3235-11.62 0.183-2.014-0.29808-4.9975-1.2366-7.6678-0.28737-0.81761-0.62273-1.6496-0.62273-1.6496s0.02864-0.25841-0.9503 0.47393c-1.3377 1.0007-5.4844 2.8558-7.3453 3.407-2.6555 0.78668-5.9422 1.3358-7.9938 1.3358-3.9968 0-9.7923-1.6405-14.525-4.1119-2.1134-1.1037-6.2068-2.5849-8.5524-3.5114z" fill="#cc1148"/><path d="m56.74 122.83c0.42772-3e-3 0.88776 0.0937 1.371 0.29558 1.21 0.50558 1.7529 1.668 1.7529 3.7528 0 1.8687-0.6241 3.2357-1.6986 3.7202-2.749 1.2396-5.0817-1.6798-4.1444-5.1868 0.44494-1.6648 1.436-2.5725 2.7192-2.5818z" fill="#322444"/><path d="m39.471 122.83c-0.42772-3e-3 -0.88776 0.0937-1.371 0.29558-1.21 0.50558-1.7529 1.668-1.7529 3.7528 0 1.8687 0.6241 3.2357 1.6986 3.7202 2.749 1.2396 5.0817-1.6798 4.1444-5.1868-0.44494-1.6648-1.436-2.5725-2.7192-2.5818z" fill="#322444"/><path d="m60.833 135.61c-0.3531 0.17019-1.1834 0.31059-2.4395 0.62942-1.9472 0.49424-3.278 0.41095-3.3472 0.69323-0.22597 0.92154 3.0703 9.0191 3.6894 9.0232 0.16242 7.5e-4 0.65413-0.60552 1.0924-1.348 0.80723-1.3674 1.74-3.9634 2.0485-5.7012 0.09191-0.51774 0.51466-4.0477 0.07872-3.8376z" fill="#f2f2f2" stroke-width=".8694"/><path d="m36.293 135.43c0.3531 0.17019 1.1834 0.31059 2.4395 0.62942 1.9472 0.49424 3.278 0.41095 3.3472 0.69323 0.22597 0.92154-3.0703 9.0191-3.6894 9.0232-0.16242 7.5e-4 -0.65413-0.60552-1.0924-1.348-0.80723-1.3674-1.74-3.9634-2.0485-5.7012-0.09191-0.51774-0.51466-4.0477-0.07872-3.8376z" fill="#f2f2f2" stroke-width=".8694"/><rect x="39.992" y="94.45" width="24.567" height="3.5719" rx=".913" fill="#c3d0d1" stroke-width=".25152"/><path d="m48.933 84.452c-12.423-0.05102-18.681 0.01689-19.628 0.21342-3.7057 0.76931-6.2121 4.506-5.4141 8.0719 0.48609 2.1721 1.6235 3.662 3.5197 4.6095 0.88712 0.4433 1.7723 0.80615 1.9673 0.80615 0.28718 0 0.35502 1.2849 0.35502 6.7572 0 7.9242 0.58978 6.0991-4.9341 15.268-11.233 18.645-17.743 29.66-18.649 31.553-1.5083 3.1532-1.9289 5.0449-1.9125 8.599 0.016125 3.4999 0.61762 5.7809 2.3492 8.9075 2.5658 4.6327 8.0857 8.3939 13.351 9.0971 0.8036 0.10729 13.844 0.17131 28.978 0.14211 29.749-0.0574 27.888 0.028 31.569-1.449 4.7019-1.8866 8.5173-5.8755 10.424-10.899 0.80342-2.1166 0.84491-2.41 0.84801-5.9309 0.0029-3.3724-0.06256-3.8937-0.73277-5.8208-0.40488-1.1642-1.1625-2.8906-1.6836-3.8364-1.1125-2.0192-10.361-17.636-12.378-20.902-2.106-3.4094-9.5195-15.864-10.156-17.062-0.52808-0.99377-0.56017-1.4389-0.56017-7.7391 0-6.189 0.03433-6.6849 0.46302-6.6869 0.78713-0.0044 3.2097-1.2595 3.9321-2.0371 3.0992-3.3358 1.9227-11.298-2.7926-11.55l-0.67644-0.03617zm17.769 4.44 0.10416-0.0011c1.3346-0.01375 1.6697 2.5028 1.103 3.6618-0.58065 1.1877-1.8946 1.8944-3.5238 1.895-0.91101 3.1e-4 -1.323 0.14312-1.7198 0.59583-0.49097 0.56012-0.52622 1.0739-0.60151 8.6873-0.06296 6.3668-0.0021 8.3128 0.28525 9.1281 0.20086 0.56993 4.866 8.5371 10.367 17.705 12.744 21.237 13.513 22.585 14.346 25.135 0.83962 2.569 0.9555 6.064 0.2744 8.2734-1.4972 4.8568-5.4555 8.5422-10.615 9.8826v-5.2e-4c-1.7687 0.45952-3.4595 0.48731-28.866 0.47181-29.218-0.0179-28.752 3e-3 -31.751-1.465-1.9364-0.94814-4.7707-3.5792-5.9252-5.501-2.388-3.975-2.5116-9.3716-0.31884-13.898 0.773-1.5958 2.6618-4.7892 15.68-26.507 4.6403-7.7416 7.9932-13.613 8.1664-14.301 0.19337-0.76796 0.26471-3.9066 0.20929-9.1808l-0.08371-8.0145c-0.13184-1.0508-1.0089-1.0022-1.9968-1.0108-1.8736-0.01626-3.6918-1.401-3.6918-2.8448 0-0.98422 0.38892-1.8764 1.0351-2.3725 0.32056-0.24613 4.8055-0.32473 18.971-0.33073z" fill="#322444"/></g></svg>
